<?xml version="1.0" encoding="utf-8"?>
<!-- Generator: Adobe Illustrator 27.4.1, SVG Export Plug-In . SVG Version: 6.00 Build 0)  -->
<svg version="1.1" id="Layer_1" xmlns="http://www.w3.org/2000/svg" xmlns:xlink="http://www.w3.org/1999/xlink" x="0px" y="0px"
	 viewBox="0 0 715 764" style="enable-background:new 0 0 715 764;" xml:space="preserve">
<style type="text/css">
	.st0{display:none;}
	.st1{display:inline;}
	.st2{fill:#212121;}
</style>
<g>
	<g>
		<g>
			<path d="M236.93,305.73v151.86c0,3.79-1.56,6.24-5.12,6.24h-6.9c-3.79,0-5.79-2.45-5.79-6.24V305.73h-24.05
				c-3.79,0-6.23-0.67-6.23-4.45c0-3.79,2.45-4.45,6.23-4.45h65.91c3.78,0,6.23,0.67,6.23,4.45c0,3.79-2.45,4.45-6.23,4.45H236.93z"
				/>
			<path d="M407.21,455.8c0.89,1.34,2,3.79,2,4.9c0,1.78-1.11,3.12-3.56,3.12h-9.8c-3.78,0-5.57-1.56-7.57-5.12l-33.18-53.88
				c-0.45-0.89-0.89-1.78-0.89-2.9c0-4.9,35.85-25.61,35.85-69.69c0-18.26-10.69-26.5-29.39-26.5h-9.13c-3.56,0-5.12,2.45-5.12,6.23
				v145.62c0,3.79-1.56,6.24-5.12,6.24h-6.9c-3.78,0-5.79-2.45-5.79-6.24V303.05c0-3.79,1.56-6.23,5.12-6.23h34.51
				c27.61,0,41.42,11.13,41.42,35.85c0,27.61-23.6,51.21-39.19,62.79L407.21,455.8z"/>
			<path d="M507.91,466.05c-23.82,0-33.84-21.6-33.84-48.1c0-5.12,1.11-7.57,4.9-7.57c3.79,0,4.01,2.45,4.01,7.79
				c0,22.27,10.69,37.63,22.49,37.63c13.36,0,21.15-14.92,21.15-30.28c0-45.42-46.54-49.43-46.54-88.62
				c0-24.05,16.7-42.31,35.63-42.31c19.37,0,25.38,12.02,25.38,36.52c0,3.79-0.45,6.23-4.23,6.23c-3.79,0-4.68-2.45-4.68-6.23
				c0-17.37-4.9-26.27-14.7-26.27c-9.57,0-17.59,11.58-17.59,23.38c0,36.29,46.54,45.2,46.54,88.4
				C546.43,446.01,529.73,466.05,507.91,466.05z"/>
		</g>
		<g>
			<g>
				<path d="M118.03,647.81c-3.88,1.31-7.44,2.54-10.58,3.99c-2.28,1.07-7.97-2.27-8.98-3.37c-1.01-1.11-0.54-2.15,0.79-3.36
					c2.32-2.13,4.43-1.82,8.2-5.26c0.55-0.51,1.11-1.01,1.56-1.63c-9.27-11.24-15.73-23.42-19.09-33.76
					c-22.88,1.21-47.89-2.14-63.89-19.63c-5.67-6.2-6.98-12.52-4.99-14.34c1.88-1.72,5.94-2.18,6.95-1.07
					c2.23,2.43-3,7.83,4.69,16.24c10.22,11.18,31.72,12.46,55.06,10.42c-1.07-6.95-0.41-12.23,2.36-14.76
					c4.87-4.45,12.4-1.78,18.67,5.08c1.72,1.88,3.21,4.18,4.48,6.68l4.06-0.67l9.83-1.47c-2.88-2.04-5.62-4.82-8.26-7.69
					c-11.13-12.18-17.75-32.75-7.02-42.57c7.08-6.48,19.55-5.07,28.56,4.78c10.53,11.51,10.27,22.12,7.5,24.65
					c-0.66,0.61-1.92,0.13-3.03-1.09c-3.04-3.32,3.15-11.01-7.08-22.19c-4.96-5.42-11.08-6.33-17.05-0.87
					c-9.96,9.11-8.46,25.42,3.99,39.04c1.72,1.88,4.08,3.79,6.55,5.39c21.47-2.97,38.52-4.33,43.99,1.65
					c1.72,1.88,1.84,4.01,0.51,5.22c-3.1,2.83-21.44,4.56-37.25-0.28c-4.5,0.86-9.42,1.7-14.67,2.85l-7.28,1.37
					c4.08,13.35,3.35,29.66-2.35,38.33l0.1,0.11c24.22-7.52,67.88-17.57,87.32-17.65c13.38-0.04,25.99,9.97,27.41,11.52
					c0.91,1,0.87,1.84,0.43,2.25c-0.89,0.81-2.18,1.18-4.02-0.39c-4.41-3.49-6.9-4.87-16.05-4.43c-14.37,0.74-58.9,6.71-88.19,15.81
					c7.55,6.92,16.46,11.78,29.6,17.03c2.39,1.06,1.97,3.49-0.86,2.62C137.29,661.09,127.41,656.51,118.03,647.81z M108.66,593.56
					c-0.78-1.52-1.57-2.83-2.48-3.83c-3.64-3.99-6.28-4.42-8.49-2.4c-1.77,1.62-2.43,4.46-2.27,7.97L108.66,593.56z M96.74,603.86
					c2.53,9.88,8.05,21.91,14.22,31.11c4.31-8.62,3.87-22.44,0.94-32.98C107.19,602.84,102.06,603.46,96.74,603.86z"/>
				<path d="M235.91,675.47c5.94,2.87,7.09,8.08,5,12.41c-2.02,4.19-7.03,5.6-8.11,5.08c-0.81-0.39-1.5-1.72-1.17-2.4
					c0.72-1.49,3.87-1.46,5.3-4.43c1.11-2.3,0.73-5.31-2.78-7c-9.46-4.56-40.44,0.97-46.04,12.59c-0.72,1.49-0.3,2.69,0.92,3.27
					c2.57,1.24,11.73-0.84,16.94-2.65c2.6-0.91,3.99-2.4,6.26-3.31c2.47-0.97,9.19-0.4,10.94,0.45c1.49,0.72,1.64,1.79,1.05,3
					c-0.52,1.08-1.57,2.57-2.29,4.06c-3.13,6.48-1.44,11.96,6.93,16c7.56,3.65,17.29,3.85,31.72,3.98c2.62,0.1,3.12,2.5,0.17,2.75
					c-16.44-0.1-28.44,0.27-41-5.8c-7.97-3.85-11.66-8.29-12.58-17.06c-6.62,1.3-20.41,3.64-27.3,0.32
					c-4.73-2.28-5.65-5.56-4.02-8.93c2.8-5.81,12.92-11.25,24.76-14.03c-10.21-0.59-26.25-1.17-36.98-1.36
					c-2.62-0.1-3.12-2.5-0.17-2.75C186.31,669.53,222.94,669.21,235.91,675.47z"/>
				<path d="M273.04,723.61c12.95-5.37,25.75-10.76,37.26-17.12c9.95-5.41,16.45-11.02,22.29-10.67c4.19,0.25,7.47,3.16,7.19,7.8
					c-0.45,7.34-5.23,14.26-7.08,20.01c7.54-5.4,23.85-16.58,31.79-16.1c2.7,0.16,4.46,0.87,6,2.62c4.08,4.61,4.15,18.29,9.49,24.32
					c2.11,2.38,5.32,3.93,10.56,4.25c7.79,0.47,15.29-1.92,26.38-6.36c2.46-0.9,3.84,1.14,1.2,2.48
					c-11.24,4.43-20.18,8.09-30.51,7.46c-34.73-2.11-22.01-28.54-29.04-28.97c-4.94-0.3-23.13,12.12-26.78,15.35
					c-3.81,3.38-9.2,12.82-12.19,12.63c-2.25-0.14-4.45-3.43-4.33-5.37c0.22-3.59,11.42-22.15,11.77-27.99
					c0.15-2.4-1.01-3.22-2.5-3.31c-1.65-0.1-4.89,1.36-12.33,5.11c-9.77,4.97-25.32,11.08-37.96,16.32
					C271.78,726.99,270.4,724.95,273.04,723.61z"/>
				<path d="M428.15,725.93c9.69-8.58,20.27-17.89,26.9-24.65c-0.48-1.11-0.81-2.26-1.19-3.56c-3.59-12.39,3.92-20.97,10.26-22.8
					c3.75-1.08,6.24,0.53,7.2,3.85c1.13,3.89-1.49,9.96-7.48,17.31c2.79,7.47,6.72,11.33,9.3,20.26c0.58,2.02,0.84,3.97,0.91,5.83
					c11.01-4.59,21.49-10.44,30.59-18.38c2.01-1.68,4-0.22,1.96,1.93c-9.55,8.54-21.97,15.26-32.65,19.92
					c-0.88,7.75-5.93,14.05-13.42,16.22c-7.06,2.04-12.4,0.31-13.49-3.43c-1.29-4.47,6.4-8.1,17.63-12.44
					c-0.25-0.87-0.4-1.92-0.69-2.92c-1.96-6.77-5.11-12.26-7.75-18.68c-7.12,7.22-16.43,15.53-26.14,23.5
					C428.11,729.53,426.12,728.07,428.15,725.93z M464.9,729.34c-8.93,3.68-13.97,6.23-13.42,8.1c0.38,1.3,3.59,1.61,7.19,0.57
					C462.41,736.93,464.86,734.04,464.9,729.34z M462.63,692.36c3.28-4.85,5.47-9.7,4.76-12.15c-0.25-0.86-0.81-1.17-1.96-0.84
					C463.26,680,460.54,685.16,462.63,692.36z"/>
				<path d="M512.96,700.9c20.48-31.18,26.96-45.74,35.2-50.68c3.6-2.16,6.3-1.16,7.77,1.29c3.32,5.53-3.63,21.94-10.73,30.23
					c2.85,4.76,8.15,8.93,16.51,3.91c8.62-5.17,16.34-15.05,26.24-29.74c1.52-2.13,3.81-1.23,2.39,1.36
					C580,672.4,570.71,686.37,559.65,693c-9.39,5.63-18.21,3.75-23.08-4.35c-2.55-4.25-3.5-8.75-2.65-14.33
					c-4.73,7.56-12.89,19.63-18.58,27.94C513.83,704.39,511.54,703.49,512.96,700.9z M543.98,679.14c5.45-6.95,9.6-18.7,7.13-22.82
					c-0.39-0.64-1.29-0.98-2.19-0.44C546.09,657.58,541.49,671.19,543.98,679.14z"/>
				<path d="M600.8,651.63c3.09-13.68,6.08-27.24,7.53-40.31c1.33-11.24,0.49-19.79,4.15-24.36c2.63-3.28,6.89-4.28,10.52-1.37
					c5.73,4.6,8.63,12.5,12.25,17.33c-0.06-9.28,0.23-29.05,5.2-35.25c1.69-2.11,3.28-3.13,5.6-3.39
					c6.11-0.67,17.33,7.17,25.34,6.29c3.16-0.35,6.28-2.08,9.57-6.17c4.88-6.08,7.26-13.6,10.04-25.22
					c0.68-2.53,3.14-2.48,2.72,0.45c-2.87,11.73-5.04,21.15-11.52,29.22c-21.78,27.14-36.01,1.5-40.42,7
					c-3.1,3.86-3.45,25.88-2.92,30.73c0.56,5.06,5.16,14.91,3.28,17.25c-1.41,1.75-5.37,1.66-6.89,0.44
					c-2.81-2.25-11.5-22.11-16.06-25.77c-1.87-1.5-3.21-1.04-4.15,0.14c-1.03,1.29-1.72,4.78-2.95,13.02
					c-1.58,10.84-5.56,27.07-8.58,40.42C602.84,654.61,600.38,654.56,600.8,651.63z"/>
			</g>
			<g class="st0">
				<path class="st1" d="M658.65,541.37c37.78-78.92,42.01-172.6,11.33-254.51c-26.61-71.69-79.51-133.26-146.55-170.08
					c-83.15-46.52-186.51-52.99-274.89-17.39c-2.62,1.07-6.84,2.63-9.38,3.91c-5.33,2.37-13.25,5.98-18.36,8.74
					c-8.72,4.33-18.27,9.89-26.46,15.17c-10.04,6.23-19.65,13.42-28.92,20.75c-3.85,3.01-9.86,8.38-13.57,11.54
					c-31.98,29.15-58.55,64.49-76.68,103.85c0,0-2.14,4.64-2.14,4.64c-0.17,0.45-1.4,2.96-1.6,3.48c0,0-0.48,1.18-0.48,1.18
					l-3.81,9.47c-1.5,3.4-2.35,6.25-3.55,9.57c-2.24,5.94-4.5,13.39-6.24,19.45c0,0-1.45,4.9-1.45,4.9l-1.2,4.97
					c-1.32,5.38-3.46,14.44-4.33,19.98c-1.58,7.51-2.35,15.17-3.45,22.76c-0.37,3.8-0.74,8.98-1.1,12.75
					c-4.37,56.34,6.53,113.79,30.77,164.87c-6.35-12.21-11.93-24.84-16.7-37.79c-16.72-45.45-22.72-94.73-17.94-142.95
					c1.34-13.57,3.67-27.74,6.77-41.07c0,0,1.13-5.09,1.13-5.09l1.37-5.03c1.97-8.05,5.04-17.15,7.6-24.93
					c1.37-3.74,4.58-11.98,6.07-15.83c0.81-1.94,2.83-6.31,3.7-8.35c5.59-12.7,12.21-25.08,19.42-36.94
					c1.25-1.77,5.85-9.45,6.99-11.03c2.76-3.92,6.23-8.92,9-12.83c3.08-3.86,8.1-10.7,11.3-14.38c2.52-2.9,6.02-7.04,8.52-9.91
					c2.4-2.52,8.37-8.88,10.77-11.4c3.45-3.33,7.84-7.56,11.3-10.88c0.57-0.59,8.9-7.75,9.84-8.62c3.58-3.16,8.46-6.85,12.21-9.86
					c9.62-7.45,19.82-14.34,30.2-20.71c89.3-54.18,200.83-61.94,297.01-21.42c27.19,11.59,53.17,26.88,76.23,45.39
					c4.9,3.69,11.36,9.45,15.98,13.49c2.56,2.14,5.22,4.94,7.62,7.17c0,0,3.77,3.62,3.77,3.62l1.88,1.82
					c2.56,2.61,6.66,7.11,8.98,9.5c0,0,1.79,1.9,1.79,1.9l1.7,1.98c2.34,2.76,6.15,7.13,8.51,9.92c2.19,2.78,7.43,9.61,9.6,12.39
					c0,0,1.51,2.13,1.51,2.13l3,4.28l3,4.28l1.5,2.14c2.44,3.61,4.86,7.83,6.99,11.03c2.83,4.3,5.23,9.13,7.84,13.56
					c4.16,7.63,8.1,15.41,11.58,23.38c0.9,2.17,3.3,7.22,4.17,9.56C706.46,356.82,702.44,458.14,658.65,541.37L658.65,541.37z"/>
			</g>
		</g>
	</g>
	<g>
		<g>
			<path d="M618.63,127.75c-31.9-4.61-67-6-96.53-17.9c-48.9-19.7-100.87-34.95-154.08-35.24c-85.08-0.43-168.29,33.33-230.88,91.15
				C194.73,101.3,281.6,64.16,368.03,64.61c54.57,0.35,107.47,16.62,156.36,39.13C552.63,116.75,588.61,120.41,618.63,127.75
				L618.63,127.75z"/>
		</g>
		<g>
			<path d="M658.49,132.04c-15.95,6.05-69.76,21.58-73.78-4.35c-0.99-7.94,2.91-16.86,10.91-19.41
				C613.59,102.18,645.49,119.76,658.49,132.04L658.49,132.04z M658.49,132.04c-12.44-8.61-51.72-28.07-64.89-17.04
				c-4.01,3.7-5.42,11.39-2.72,15.98C600.03,144.6,643.95,134.9,658.49,132.04L658.49,132.04z"/>
		</g>
		<g>
			<path d="M508.59,159.39c-12.57-6.75-50.6-32.01-36.21-48.61c4.58-4.91,12.45-7.22,18.39-3.43
				C504.2,115.63,509.69,144.59,508.59,159.39L508.59,159.39z M508.59,159.39c-1.41-12.13-9.87-46.37-23.37-48.9
				c-3.96-0.64-9.6,2.55-10.87,6.33C470.79,129.35,499.47,151.73,508.59,159.39L508.59,159.39z"/>
		</g>
		<g>
			<path d="M386.08,130.01c-13.89-3.28-57.15-17.86-47.54-37.61c3.16-5.93,10.16-10.19,16.88-8.06
				C370.53,88.87,383.32,115.43,386.08,130.01L386.08,130.01z M386.08,130.01c-4.49-11.35-21.51-42.25-35.21-41.21
				c-3.99,0.41-8.61,4.94-8.86,8.93C341.8,110.75,375.29,124.96,386.08,130.01L386.08,130.01z"/>
		</g>
		<g>
			<path d="M268.71,151.88c-14.16,2.11-59.62,4.75-58.13-17.2c0.73-6.68,5.64-13.24,12.67-13.77
				C238.96,119.49,260.71,139.38,268.71,151.88L268.71,151.88z M268.71,151.88c-8.4-8.86-35.7-31.2-48.02-25.13
				c-3.55,1.86-6.15,7.8-4.9,11.58C220.44,150.5,256.81,151.21,268.71,151.88L268.71,151.88z"/>
		</g>
		<g>
			<path d="M579.82,77.99c-11.62-2.4-46.98-11.09-54.63-0.53c-2.19,3.34-1.19,9.74,1.75,12.46
				C537.29,98.94,569.38,84.42,579.82,77.99L579.82,77.99z M579.82,77.99c-10.95,10.02-37.04,23.64-51.9,18.22
				c-6.65-2.32-9.71-9.92-8.7-16.57C523.36,58.08,566.68,72.27,579.82,77.99L579.82,77.99z"/>
		</g>
		<g>
			<path d="M470.63,21.29c-11.62,2.39-47.54,8.39-50.38,21.11c-0.69,3.93,2.76,9.42,6.54,10.75
				C439.84,57.36,463.58,31.33,470.63,21.29L470.63,21.29z M470.63,21.29c-6.06,13.5-24.71,36.39-40.46,37.26
				c-7.03,0.5-12.85-5.28-14.54-11.78C410.9,25.34,456.3,21.24,470.63,21.29L470.63,21.29z"/>
		</g>
		<g>
			<path d="M294.93,32.6c-11.32,3.54-46.46,13.12-48.01,26.06c-0.29,3.98,3.69,9.09,7.58,10.04
				C267.92,71.58,288.92,43.29,294.93,32.6L294.93,32.6z M294.93,32.6c-4.68,14.04-20.93,38.68-36.52,41.13
				c-6.95,1.2-13.31-3.96-15.65-10.26C235.9,42.62,280.66,33.99,294.93,32.6L294.93,32.6z"/>
		</g>
		<g>
			<path d="M220.12,102.76c6.15-2.17,12.1-5.31,15.76-10.75c3.62-5.16,5.39-11.62,8.33-17.79c2.85-6.23,6.94-12.12,12.19-16.58
				c5.14-4.47,11.3-7.72,17.72-9.88c-11.43,7.08-20.92,15.71-26.29,28.15c-2.9,6.04-5.02,12.7-9.49,18
				C233.94,99.36,226.91,102.2,220.12,102.76L220.12,102.76z"/>
		</g>
		<g>
			<path d="M358.12,69.76c13.37-2.8,26.55-5.62,39.35-10.28c9.09-3.23,17.88-7.33,26.53-11.57c6.97-3.43,13.93-7,21.12-10.15
				C418.03,57.35,392.22,69.79,358.12,69.76L358.12,69.76z"/>
		</g>
		<g>
			<path d="M465.12,82.76c6.86,1.68,13.66,3.26,20.49,3.68c6.82,0.51,13.55-0.63,20.39-1.91c13.71-2.86,28.12-4.44,42.13-2.77
				c-14.06,1.54-27.56,3.72-41.38,6.7C491.93,91.71,478.52,89.86,465.12,82.76L465.12,82.76z"/>
		</g>
		<g>
			<path d="M295.12,81.76c24.57-12.34,32.23-6.02,50.98,10.76c4.64,4.08,9.35,8.07,14.02,12.24c-11.15-5.38-20.92-13.69-30.72-20.89
				C318.66,75.58,307.31,79.16,295.12,81.76L295.12,81.76z"/>
		</g>
		<g>
			<path d="M434.12,76.76c22.54-1.36,33.37,17.93,43.94,34.28c3.54,5.26,7.32,10.31,12.06,14.72c-11.5-6.23-18.45-18.28-25.99-28.36
				C456.48,86.68,447.46,79.11,434.12,76.76L434.12,76.76z"/>
		</g>
		<g>
			<path d="M180.12,129.76c1.59-1.74,3.27-3.35,4.98-4.96c3.54-3.23,8.26-7.44,13.54-5.82c6.95,2.25,12.56,6.23,18.9,9.52
				c4.02,2.27,13.13,7.71,17.1,10.25c-9.14-1.99-22.89-9.01-31.08-13.35c-2.91-1.4-5.5-3.26-8.58-3.11
				c-3.11,0.46-5.87,2.51-8.71,4.09C184.24,127.53,182.23,128.72,180.12,129.76L180.12,129.76z"/>
		</g>
	</g>
	<g>
		<path class="st2" d="M76.83,541.37c-46.34-86.03-49.56-192.73-9.69-281.82c3.05-7.26,6.73-14.22,10.26-21.26
			c2.37-4.19,5.34-9.54,7.73-13.73c1.88-2.94,6.5-10.4,8.38-13.35c2.76-3.95,6.25-8.99,9.01-12.93c4.38-5.69,9.97-13.19,14.73-18.51
			c123.2-144.51,342.61-155.2,479.05-23.1c4.54,4.17,10.45,10.56,14.69,15.06c2.36,2.38,4.75,5.46,6.93,7.91
			c0.86,1.03,4.23,4.92,5.12,6c2.3,2.93,5.93,7.74,8.02,10.41c0,0,1.6,2.08,1.6,2.08l1.5,2.16c2.07,3.01,5.42,7.75,7.51,10.78
			c3.72,5.92,8.97,14.03,12.25,20.2c15.5,27.3,27.03,57.07,33.85,87.72c0,0,2.21,10.23,2.21,10.23c1.05,5.9,2.06,12.14,2.93,18.07
			c0.43,3.52,1.37,12.05,1.74,15.58c0,0,0.16,2.61,0.16,2.61l0.33,5.21c2.89,44.97-3.79,90.67-19.64,132.85
			c-4.89,12.93-10.54,25.55-17.04,37.7c28.02-59.73,37.35-127.77,26.71-192.79c-17.03-104.39-84.97-194.64-180.61-239.77
			C423.29,70.15,327.38,68,244.39,102.56c-7.15,3.12-16.01,7.05-22.9,10.7c-2.44,1.24-6.59,3.27-8.95,4.72
			c-2.71,1.69-10.52,5.76-13.12,7.64C146.15,158.35,102.68,207,76.3,263.72C35.24,350.33,35.91,454.77,76.83,541.37L76.83,541.37z"
			/>
	</g>
</g>
</svg>
