<?xml version="1.0" encoding="UTF-8"?>
<svg id="Logo_1" data-name="Logo 1" xmlns="http://www.w3.org/2000/svg" xmlns:xlink="http://www.w3.org/1999/xlink" viewBox="0 0 410 410">
  <defs>
    <style>
      .cls-1 {
        filter: url(#drop-shadow-3);
      }

      .cls-2 {
        fill: #eae8e3;
        filter: url(#drop-shadow-1);
        stroke: #a6a091;
      }

      .cls-2, .cls-3, .cls-4 {
        stroke-miterlimit: 10;
      }

      .cls-3 {
        fill: #cdbcaf;
        stroke: #4d392a;
      }

      .cls-3, .cls-4 {
        stroke-width: .5px;
      }

      .cls-5 {
        filter: url(#drop-shadow-2);
      }

      .cls-4 {
        fill: #c9ebf2;
        stroke: #3d6a73;
      }
    </style>
    <filter id="drop-shadow-1" filterUnits="userSpaceOnUse">
      <feOffset dx="7" dy="7"/>
      <feGaussianBlur result="blur" stdDeviation="5"/>
      <feFlood flood-color="#212121" flood-opacity=".5"/>
      <feComposite in2="blur" operator="in"/>
      <feComposite in="SourceGraphic"/>
    </filter>
    <filter id="drop-shadow-2" filterUnits="userSpaceOnUse">
      <feOffset dx="4" dy="4"/>
      <feGaussianBlur result="blur-2" stdDeviation="4"/>
      <feFlood flood-color="#212121" flood-opacity=".5"/>
      <feComposite in2="blur-2" operator="in"/>
      <feComposite in="SourceGraphic"/>
    </filter>
    <filter id="drop-shadow-3" filterUnits="userSpaceOnUse">
      <feOffset dx="4" dy="4"/>
      <feGaussianBlur result="blur-3" stdDeviation="4"/>
      <feFlood flood-color="#212121" flood-opacity=".5"/>
      <feComposite in2="blur-3" operator="in"/>
      <feComposite in="SourceGraphic"/>
    </filter>
  </defs>
  <g id="Layer_1" data-name="Layer 1">
    <circle class="cls-2" cx="198" cy="198" r="189.5"/>
  </g>
  <g id="Layer_2" data-name="Layer 2">
    <g>
      <g class="cls-5">
        <path class="cls-4" d="m181.88,267.43V104.44c0-2.09-2.39-3.28-4.48-3.28h-56.18c-2.99,0-5.07-2.99-5.07-14.92s2.09-13.73,5.07-13.73h153.55c2.98,0,5.07,2.09,5.07,13.73s-2.09,14.92-5.07,14.92h-55.88c-2.39,0-4.78,1.19-4.78,3.28v162.99c0,2.69-2.99,5.07-16.12,5.07s-16.12-2.09-16.12-5.07Z"/>
      </g>
      <g class="cls-1">
        <path class="cls-3" d="m118.89,318.43v-189.85c0-2.99,2.69-5.07,16.42-5.07s16.12,2.09,16.12,5.07v80.3c0,2.09,1.49,3.28,3.58,3.28h85.97c2.09,0,3.58-1.19,3.58-3.28v-80.3c0-2.99,2.69-5.07,16.12-5.07s16.42,2.09,16.42,5.07v189.85c0,2.69-2.99,5.07-16.42,5.07s-16.12-2.09-16.12-5.07v-74.03c0-2.39-1.49-3.58-3.58-3.58h-85.97c-2.09,0-3.58,1.19-3.58,3.58v74.03c0,2.69-2.98,5.07-16.12,5.07s-16.42-2.09-16.42-5.07Z"/>
      </g>
    </g>
  </g>
</svg>